<svg width="18" height="32" viewBox="0 0 18 32" fill="none" xmlns="http://www.w3.org/2000/svg">
<path d="M3.3273 5.50219C3.69643 5.36918 5.40655 4.92593 8.5452 3.9074C10.6003 3.24048 11.6481 2.73797 12.1871 2.67673C12.4393 2.64808 12.6641 2.88675 12.8072 3.14303C13.8235 4.96443 13.9414 8.00488 14.2175 9.2865C14.3608 9.93796 14.4795 10.5559 14.5735 11.1039C14.6225 11.3828 14.6743 11.6633 14.8459 12.0996" stroke="#6F6F6F" stroke-width="1.7" stroke-linecap="round"/>
<path d="M9.0613 9.43006C8.92862 9.6715 8.35785 10.5209 7.1474 12.6808C6.17997 14.407 4.79663 17.567 4.02004 19.2893C2.86571 21.8493 3.13262 23.8465 3.61267 25.915C3.86916 26.6764 4.5601 27.9583 5.51166 29.5448C5.89599 30.1712 6.08022 30.4348 6.48781 31.0836" stroke="#6F6F6F" stroke-width="1.7" stroke-linecap="round"/>
</svg>
